<?xml version="1.0" encoding="UTF-8" standalone="no"?>
<svg
   version="1.1"
   id="Réteg_2"
   x="0px"
   y="0px"
   viewBox="0 0 24 24"
   style="enable-background:new 0 0 24 21;"
   xml:space="preserve"
   sodipodi:docname="folder_open.svg"
   inkscape:version="1.4.2 (ebf0e94, 2025-05-08)"
   xmlns:inkscape="http://www.inkscape.org/namespaces/inkscape"
   xmlns:sodipodi="http://sodipodi.sourceforge.net/DTD/sodipodi-0.dtd"
   xmlns="http://www.w3.org/2000/svg"
   xmlns:svg="http://www.w3.org/2000/svg">
  <!-- Back of folder -->
  <path
   d="m 4.5,2 c -0.5522619,5.52e-5 -0.9999448,0.4477381 -1,1 v 4 c 0,0.552285 0.4477153,1 1,1 0.5522847,0 1,-0.447715 1,-1 V 4 H 9.0859375 L 10.792969,5.7070313 C 10.980481,5.8945675 11.234801,5.9999489 11.5,6 h 10.541057 v 15 c -0.552285,0 -1,0.447715 -1,1 0,0.552285 0.447715,1 1,1 1.095455,0 2,-0.904545 2,-2 V 6 c 0,-1.0954545 -0.904545,-2 -2,-2 H 11.914063 L 10.207031,2.2929687 C 10.019519,2.1054325 9.7651989,2.0000511 9.5,2 Z"
    />

  <!-- Wider front flap -->
  <path
   d="M 1,7 C 0.317161,6.999689 -0.165183,7.668619 0.050781,8.316406 l 2,14 C 2.187046,22.724845 2.56943,23.000225 3,23 h 18.731159 c 0.682839,3.12e-4 1.165183,-0.668619 0.949219,-1.316406 l -2,-14 C 20.544114,7.275155 20.161729,6.999775 19.731159,7 Z m 1.388672,2 h 16.621784 l 1.332031,12 H 3.720703 Z"
    />
</svg>
