<svg
	version="1.1"
	id="Réteg_3"
	xmlns="http://www.w3.org/2000/svg"
	xmlns:xlink="http://www.w3.org/1999/xlink"
	x="0px"
	y="0px"
	viewBox="0 0 24 24"
	style="enable-background:new 0 0 24 24;"
	xml:space="preserve"
>
<path
   d="m 11.904297,3.6347656 c -0.3625,0 -0.735938,0.098828 -1.085938,0.2988282 l -9.7011715,5.5 c -0.69999996,0.4 -1.09960937,1.1003902 -1.09960937,1.9003902 0,0.8 0.39960941,1.500782 1.09960937,1.800782 3.3172511,1.740274 6.545622,3.645887 9.8007815,5.5 0.3,0.2 0.7,0.298828 1,0.298828 0.3,0 0.7,-0.09883 1,-0.298828 l 8,-4.5 c 0,0 0.341965,-0.15888 1.798828,-1 0.7,-0.4 1.101562,-1.100782 1.101562,-1.800782 0,-0.8 -0.401562,-1.5007809 -1.101562,-1.8007809 L 12.917969,3.9335938 c -0.3,-0.2000001 -0.651172,-0.2988282 -1.013672,-0.2988282 z m -0.08594,1.7988282 h 0.09961 0.09961 l 9.800781,5.5996092 c 0.2,0.1 0.199219,0.200781 0.199219,0.300781 0,0.1 7.81e-4,0.200782 -0.199219,0.300782 l -9.800781,5.599609 c -0.1,0.1 -0.200781,0.1 -0.300781,0 L 2.0175781,11.533203 c -0.175,-0.0875 -0.1964843,-0.176758 -0.1992187,-0.197265 v -0.002 c 0,-0.1 -7.813e-4,-0.200781 0.1992187,-0.300781 z"
/>
 </svg>
