<?xml version="1.0" encoding="UTF-8" standalone="no"?>
<!-- Generator: Adobe Illustrator 25.0.1, SVG Export Plug-In . SVG Version: 6.00 Build 0)  -->

<svg
   version="1.1"
   id="Réteg_3"
   x="0px"
   y="0px"
   viewBox="0 0 24 24"
   style="enable-background:new 0 0 24 24;"
   xml:space="preserve"
   sodipodi:docname="tick.svg"
   inkscape:version="1.4.2 (ebf0e94, 2025-05-08)"
   xmlns:sodipodi="http://sodipodi.sourceforge.net/DTD/sodipodi-0.dtd"
   xmlns="http://www.w3.org/2000/svg"
   xmlns:svg="http://www.w3.org/2000/svg">

   <g transform="matrix(1.0362899,0,0,1.0362899,-0.4354733,-0.43547966)">

   <path
     d="m 12,0.63085937 c -0.398214,10e-9 -0.795761,0.16919681 -1.060547,0.50585933 L 9.1933594,3.3574219 6.4726562,2.5878906 C 5.6483385,2.3542671 4.7883757,2.9778017 4.7558594,3.8339844 L 4.6484375,6.6601562 1.9960937,7.6328125 C 1.1918843,7.9283205 0.86292561,8.9405707 1.3398437,9.6523438 L 2.9121094,12 1.3398437,14.347656 c -0.47689206,0.711756 -0.1478447,1.723955 0.65625,2.019531 l 2.6523438,0.972657 0.1074219,2.826172 c 0.032514,0.856178 0.8924476,1.479776 1.7167968,1.246093 l 2.7207032,-0.769531 1.7460936,2.220703 c 0.529596,0.67329 1.591498,0.67329 2.121094,0 l 1.746094,-2.220703 2.720703,0.769531 c 0.823732,0.233465 1.683207,-0.390812 1.716797,-1.246093 v -0.002 l 0.107421,-2.824218 2.652344,-0.972657 c 0.804066,-0.295573 1.133273,-1.307744 0.65625,-2.019531 L 21.087891,12 22.660156,9.6523438 C 23.137205,8.9405405 22.808087,7.928318 22.003906,7.6328125 L 19.351562,6.6601562 19.244141,3.8359375 v -0.00195 C 19.21055,2.9786985 18.351047,2.3544785 17.527344,2.5878906 L 14.806641,3.3574219 13.060547,1.1367187 C 12.795761,0.80005618 12.398214,0.63085937 12,0.63085937 Z m 0,1.58007813 1.691406,2.1523437 c 0.336938,0.4283857 0.905245,0.6134808 1.429688,0.4648438 l 2.632812,-0.7460938 0.101563,2.734375 c 0.02081,0.5438779 0.373881,1.0264333 0.884765,1.2148438 l 2.56836,0.9433594 -1.523438,2.2734376 c -0.303375,0.452823 -0.303375,1.051083 0,1.503906 l 1.523438,2.273438 -2.56836,0.943359 c -0.511687,0.187962 -0.863937,0.670398 -0.884765,1.214844 l -0.101563,2.734375 -2.632812,-0.746094 c -0.524681,-0.148884 -1.092803,0.03657 -1.429688,0.464844 L 12,21.789062 10.308594,19.636719 C 9.9717126,19.208279 9.4035865,19.023004 8.8789063,19.171875 L 6.2460937,19.917969 6.1445312,17.183594 C 6.1238275,16.638887 5.7713538,16.156742 5.2597656,15.96875 L 2.6914063,15.025391 4.2148437,12.751953 c 0.3033757,-0.452823 0.3033757,-1.051083 0,-1.503906 L 2.6914063,8.9746094 5.2597656,8.03125 C 5.7714197,7.8432259 6.1238239,7.3611161 6.1445312,6.8164062 L 6.2460937,4.0820312 8.8789063,4.828125 c 0.524443,0.1486243 1.0927534,-0.036292 1.4296877,-0.4648438 z"
      />
     <path
     d="M 15.685547,8.6210938 A 0.92158002,0.92158002 0 0 0 15.035156,8.890625 l -2.80664,2.806641 -1.457032,1.457031 -1.8066402,-1.806641 a 0.92158002,0.92158002 0 0 0 -1.3027344,0 0.92158002,0.92158002 0 0 0 0,1.304688 l 2.4570316,2.457031 a 0.92167217,0.92167217 0 0 0 1.304687,0 l 2.107422,-2.107422 2.806641,-2.808594 a 0.92158002,0.92158002 0 0 0 0,-1.302734 0.92158002,0.92158002 0 0 0 -0.652344,-0.2695312 z"
     />

</g>
</svg>
